<svg version="1.0" xmlns="http://www.w3.org/2000/svg" width="700pt" height="700pt" viewBox="0 0 700 700"><g transform="translate(0.000000,700.000000) scale(0.100000,-0.100000)" fill="#000" stroke="none"><path d="M1085 6990c-192-29-344-131-433-290-65-116-62-28-62-1615 0-1216 2-1448 15-1494 55-208 231-364 460-406 61-12-1-13-497-14l-568-1v-270-270h655 655l2-1148 3-1147 33-69c43-91 92-150 164-196 117-76-34-71 2018-68l1835 3 70 34c119 58 216 177 244 302 7 28 11 447 11 1167v1122h655 655v270 270l-567 1c-497 1-559 2-498 14 183 34 331 138 412 292 66 122 63 42 63 1618 0 1576 3 1489-62 1605-74 132-198 229-354 276-56 18-174 19-2459 20-1320 1-2422-2-2450-6zm4753-1902 2-1368H35e2 1160v1363c0 750 3 1367 7 1370 3 4 1055 6 2337 5l2331-3 3-1367zM24e2 2185v-215h-215-215v215 215h215 215v-215zm660 0v-215h-215-215v215 215h215 215v-215zm660 0v-215h-220-220v215 215h220 220v-215zm650 0v-215h-215-215v215 215h215 215v-215zm660 0v-215h-215-215v215 215h215 215v-215zm-2630-650v-215h-215-215v215 215h215 215v-215zm660 0v-215h-215-215v215 215h215 215v-215zm660 0v-215h-220-220v215 215h220 220v-215zm650 0v-215h-215-215v215 215h215 215v-215zm660 0v-215h-215-215v215 215h215 215v-215zm-660-880V440h-870-870v215 215h870 870V655z"/><path d="M2842 5073l3-1138 153-3 152-3v460 459l303 4c271 4 310 7 381 26 241 66 390 210 452 433 25 90 26 337 1 429-30 114-73 188-156 270-85 84-158 126-281 159-127 34-230 41-627 41h-383l2-1137zm875 854c112-37 204-127 240-236 27-85 25-266-5-343-43-108-125-182-242-219-56-19-98-22-312-26l-248-6v428 427l258-4c205-4 267-8 309-21z"/></g></svg>