<?xml version="1.0" standalone="no"?>
<!DOCTYPE svg PUBLIC "-//W3C//DTD SVG 20010904//EN"
 "http://www.w3.org/TR/2001/REC-SVG-20010904/DTD/svg10.dtd">
<svg version="1.0" xmlns="http://www.w3.org/2000/svg"
 width="700.000000pt" height="700.000000pt" viewBox="0 0 700.000000 700.000000"
 preserveAspectRatio="xMidYMid meet">
<metadata>
Created by potrace 1.14, written by Peter Selinger 2001-2017
</metadata>
<g transform="translate(0.000000,700.000000) scale(0.100000,-0.100000)"
fill="#000000" stroke="none">
<path d="M1085 6990 c-192 -29 -344 -131 -433 -290 -65 -116 -62 -28 -62
-1615 0 -1216 2 -1448 15 -1494 55 -208 231 -364 460 -406 61 -12 -1 -13 -497
-14 l-568 -1 0 -270 0 -270 655 0 655 0 2 -1148 3 -1147 33 -69 c43 -91 92
-150 164 -196 117 -76 -34 -71 2018 -68 l1835 3 70 34 c119 58 216 177 244
302 7 28 11 447 11 1167 l0 1122 655 0 655 0 0 270 0 270 -567 1 c-497 1 -559
2 -498 14 183 34 331 138 412 292 66 122 63 42 63 1618 0 1576 3 1489 -62
1605 -74 132 -198 229 -354 276 -56 18 -174 19 -2459 20 -1320 1 -2422 -2
-2450 -6z m4753 -1902 l2 -1368 -2340 0 -2340 0 0 1363 c0 750 3 1367 7 1370
3 4 1055 6 2337 5 l2331 -3 3 -1367z m-3438 -2903 l0 -215 -215 0 -215 0 0
215 0 215 215 0 215 0 0 -215z m660 0 l0 -215 -215 0 -215 0 0 215 0 215 215
0 215 0 0 -215z m660 0 l0 -215 -220 0 -220 0 0 215 0 215 220 0 220 0 0 -215z
m650 0 l0 -215 -215 0 -215 0 0 215 0 215 215 0 215 0 0 -215z m660 0 l0 -215
-215 0 -215 0 0 215 0 215 215 0 215 0 0 -215z m-2630 -650 l0 -215 -215 0
-215 0 0 215 0 215 215 0 215 0 0 -215z m660 0 l0 -215 -215 0 -215 0 0 215 0
215 215 0 215 0 0 -215z m660 0 l0 -215 -220 0 -220 0 0 215 0 215 220 0 220
0 0 -215z m650 0 l0 -215 -215 0 -215 0 0 215 0 215 215 0 215 0 0 -215z m660
0 l0 -215 -215 0 -215 0 0 215 0 215 215 0 215 0 0 -215z m-660 -880 l0 -215
-870 0 -870 0 0 215 0 215 870 0 870 0 0 -215z"/>
<path d="M2842 5073 l3 -1138 153 -3 152 -3 0 460 0 459 303 4 c271 4 310 7
381 26 241 66 390 210 452 433 25 90 26 337 1 429 -30 114 -73 188 -156 270
-85 84 -158 126 -281 159 -127 34 -230 41 -627 41 l-383 0 2 -1137z m875 854
c112 -37 204 -127 240 -236 27 -85 25 -266 -5 -343 -43 -108 -125 -182 -242
-219 -56 -19 -98 -22 -312 -26 l-248 -6 0 428 0 427 258 -4 c205 -4 267 -8
309 -21z"/>
</g>
</svg>
